<svg width="36" height="36" viewBox="0 0 36 36" fill="none" xmlns="http://www.w3.org/2000/svg">
    <g filter="url(#filter0_b_2_79784)">
        <rect width="36" height="36" rx="4" fill="black" fill-opacity="0.4"/>
        <path d="M11.75 12.7917C11.75 12.2164 12.2164 11.75 12.7917 11.75H14.4583C14.8035 11.75 15.0833 11.4702 15.0833 11.125C15.0833 10.7798 14.8035 10.5 14.4583 10.5H12.7917C11.526 10.5 10.5 11.526 10.5 12.7917V14.4583C10.5 14.8035 10.7798 15.0833 11.125 15.0833C11.4702 15.0833 11.75 14.8035 11.75 14.4583V12.7917ZM11.75 23.2083C11.75 23.7836 12.2164 24.25 12.7917 24.25H14.4583C14.8035 24.25 15.0833 24.5298 15.0833 24.875C15.0833 25.2202 14.8035 25.5 14.4583 25.5H12.7917C11.526 25.5 10.5 24.474 10.5 23.2083V21.5417C10.5 21.1965 10.7798 20.9167 11.125 20.9167C11.4702 20.9167 11.75 21.1965 11.75 21.5417V23.2083ZM23.2083 11.75C23.7836 11.75 24.25 12.2164 24.25 12.7917V14.4583C24.25 14.8035 24.5298 15.0833 24.875 15.0833C25.2202 15.0833 25.5 14.8035 25.5 14.4583V12.7917C25.5 11.526 24.474 10.5 23.2083 10.5H21.5417C21.1965 10.5 20.9167 10.7798 20.9167 11.125C20.9167 11.4702 21.1965 11.75 21.5417 11.75H23.2083ZM24.25 23.2083C24.25 23.7836 23.7836 24.25 23.2083 24.25H21.5417C21.1965 24.25 20.9167 24.5298 20.9167 24.875C20.9167 25.2202 21.1965 25.5 21.5417 25.5H23.2083C24.474 25.5 25.5 24.474 25.5 23.2083V21.5417C25.5 21.1965 25.2202 20.9167 24.875 20.9167C24.5298 20.9167 24.25 21.1965 24.25 21.5417V23.2083Z" fill="white"/>
    </g>
    <defs>
        <filter id="filter0_b_2_79784" x="-20" y="-20" width="76" height="76" filterUnits="userSpaceOnUse" color-interpolation-filters="sRGB">
            <feFlood flood-opacity="0" result="BackgroundImageFix"/>
            <feGaussianBlur in="BackgroundImage" stdDeviation="10"/>
            <feComposite in2="SourceAlpha" operator="in" result="effect1_backgroundBlur_2_79784"/>
            <feBlend mode="normal" in="SourceGraphic" in2="effect1_backgroundBlur_2_79784" result="shape"/>
        </filter>
    </defs>
</svg>