<?xml version="1.0" encoding="UTF-8" standalone="no"?>
<svg width="337px" height="343px" viewBox="0 0 337 343" version="1.1" xmlns="http://www.w3.org/2000/svg" xmlns:xlink="http://www.w3.org/1999/xlink">
    <!-- Generator: Sketch 41.1 (35376) - http://www.bohemiancoding.com/sketch -->
    <title>Slice 1</title>
    <desc>Created with Sketch.</desc>
    <defs></defs>
    <g id="Page-1" stroke="none" stroke-width="1" fill="none" fill-rule="evenodd">
        <g id="Chip_Design2">
            <g id="Layer_1">
                <ellipse id="Oval" fill="#D9E1E2" opacity="0.202955163" cx="14.5151537" cy="15.0924743" rx="14.1249961" ry="14.3964467"></ellipse>
                <ellipse id="Oval" fill="#D9E1E2" opacity="0.202955163" cx="58.4636518" cy="15.0924743" rx="14.1249961" ry="14.3964467"></ellipse>
                <ellipse id="Oval" fill="#D9E1E2" opacity="0.202955163" cx="102.393853" cy="15.0924743" rx="14.1249961" ry="14.3964467"></ellipse>
                <ellipse id="Oval" fill="#D9E1E2" opacity="0.202955163" cx="146.324055" cy="15.0924743" rx="14.1249961" ry="14.3964467"></ellipse>
                <ellipse id="Oval" fill="#D9E1E2" opacity="0.202955163" cx="190.272553" cy="15.0924743" rx="14.1249961" ry="14.3964467"></ellipse>
                <ellipse id="Oval" fill="#D9E1E2" opacity="0.202955163" cx="234.202754" cy="15.0924743" rx="14.1249961" ry="14.3964467"></ellipse>
                <ellipse id="Oval" fill="#D9E1E2" opacity="0.202955163" cx="278.132956" cy="15.0924743" rx="14.1249961" ry="14.3964467"></ellipse>
                <ellipse id="Oval" fill="#D9E1E2" opacity="0.202955163" cx="322.081454" cy="15.0924743" rx="14.1249961" ry="14.3964467"></ellipse>
                <ellipse id="Oval" fill="#D9E1E2" opacity="0.202955163" cx="14.5151537" cy="59.8669156" rx="14.1249961" ry="14.3964467"></ellipse>
                <ellipse id="Oval" fill="#FFCD00" cx="58.4636518" cy="59.8669156" rx="14.1249961" ry="14.3964467"></ellipse>
                <ellipse id="Oval" fill="#D9E1E2" opacity="0.202955163" cx="102.393853" cy="59.8669156" rx="14.1249961" ry="14.3964467"></ellipse>
                <ellipse id="Oval" fill="#D9E1E2" opacity="0.202955163" cx="146.324055" cy="59.8669156" rx="14.1249961" ry="14.3964467"></ellipse>
                <ellipse id="Oval" fill="#D9E1E2" opacity="0.202955163" cx="190.272553" cy="59.8669156" rx="14.1249961" ry="14.3964467"></ellipse>
                <ellipse id="Oval" fill="#D9E1E2" opacity="0.202955163" cx="234.202754" cy="59.8669156" rx="14.1249961" ry="14.3964467"></ellipse>
                <ellipse id="Oval" fill="#D9E1E2" opacity="0.202955163" cx="278.132956" cy="59.8669156" rx="14.1249961" ry="14.3964467"></ellipse>
                <ellipse id="Oval" fill="#D9E1E2" opacity="0.202955163" cx="322.081454" cy="59.8669156" rx="14.1249961" ry="14.3964467"></ellipse>
                <ellipse id="Oval" fill="#D9E1E2" opacity="0.202955163" cx="14.5151537" cy="104.660005" rx="14.1249961" ry="14.3964467"></ellipse>
                <ellipse id="Oval" fill="#D9E1E2" opacity="0.202955163" cx="58.4636518" cy="104.660005" rx="14.1249961" ry="14.3964467"></ellipse>
                <ellipse id="Oval" fill="#D9E1E2" opacity="0.202955163" cx="102.393853" cy="104.660005" rx="14.1249961" ry="14.3964467"></ellipse>
                <ellipse id="Oval" fill="#D9E1E2" opacity="0.202955163" cx="146.324055" cy="104.660005" rx="14.1249961" ry="14.3964467"></ellipse>
                <ellipse id="Oval" fill="#D9E1E2" opacity="0.202955163" cx="190.272553" cy="104.660005" rx="14.1249961" ry="14.3964467"></ellipse>
                <ellipse id="Oval" fill="#D9E1E2" opacity="0.202955163" cx="234.202754" cy="104.660005" rx="14.1249961" ry="14.3964467"></ellipse>
                <ellipse id="Oval" fill="#D9E1E2" opacity="0.202955163" cx="278.132956" cy="104.660005" rx="14.1249961" ry="14.3964467"></ellipse>
                <ellipse id="Oval" fill="#D9E1E2" opacity="0.202955163" cx="322.081454" cy="104.660005" rx="14.1249961" ry="14.3964467"></ellipse>
                <ellipse id="Oval" fill="#D9E1E2" opacity="0.202955163" cx="14.5151537" cy="149.434446" rx="14.1249961" ry="14.3964467"></ellipse>
                <ellipse id="Oval" fill="#D9E1E2" opacity="0.202955163" cx="58.4636518" cy="149.434446" rx="14.1249961" ry="14.3964467"></ellipse>
                <ellipse id="Oval" fill="#D9E1E2" opacity="0.202955163" cx="102.393853" cy="149.434446" rx="14.1249961" ry="14.3964467"></ellipse>
                <ellipse id="Oval" fill="#D9E1E2" opacity="0.202955163" cx="234.202754" cy="149.434446" rx="14.1249961" ry="14.3964467"></ellipse>
                <ellipse id="Oval" fill="#D9E1E2" opacity="0.202955163" cx="278.132956" cy="149.434446" rx="14.1249961" ry="14.3964467"></ellipse>
                <ellipse id="Oval" fill="#D9E1E2" opacity="0.202955163" cx="322.081454" cy="149.434446" rx="14.1249961" ry="14.3964467"></ellipse>
                <ellipse id="Oval" fill="#D9E1E2" opacity="0.202955163" cx="14.5151537" cy="194.208888" rx="14.1249961" ry="14.3964467"></ellipse>
                <ellipse id="Oval" fill="#D9E1E2" opacity="0.202955163" cx="58.4636518" cy="194.208888" rx="14.1249961" ry="14.3964467"></ellipse>
                <ellipse id="Oval" fill="#D9E1E2" opacity="0.202955163" cx="102.393853" cy="194.208888" rx="14.1249961" ry="14.3964467"></ellipse>
                <ellipse id="Oval" fill="#D9E1E2" opacity="0.202955163" cx="234.202754" cy="194.208888" rx="14.1249961" ry="14.3964467"></ellipse>
                <ellipse id="Oval" fill="#D9E1E2" opacity="0.202955163" cx="278.132956" cy="194.208888" rx="14.1249961" ry="14.3964467"></ellipse>
                <ellipse id="Oval" fill="#D9E1E2" opacity="0.202955163" cx="322.081454" cy="194.208888" rx="14.1249961" ry="14.3964467"></ellipse>
                <ellipse id="Oval" fill="#D9E1E2" opacity="0.202955163" cx="14.5151537" cy="239.001977" rx="14.1249961" ry="14.3964467"></ellipse>
                <ellipse id="Oval" fill="#D9E1E2" opacity="0.768115942" cx="58.4636518" cy="239.001977" rx="14.1249961" ry="14.3964467"></ellipse>
                <ellipse id="Oval" fill="#D9E1E2" opacity="0.202955163" cx="102.393853" cy="239.001977" rx="14.1249961" ry="14.3964467"></ellipse>
                <ellipse id="Oval" fill="#D9E1E2" opacity="0.202955163" cx="146.324055" cy="239.001977" rx="14.1249961" ry="14.3964467"></ellipse>
                <ellipse id="Oval" fill="#D9E1E2" opacity="0.202955163" cx="190.272553" cy="239.001977" rx="14.1249961" ry="14.3964467"></ellipse>
                <ellipse id="Oval" fill="#D9E1E2" opacity="0.202955163" cx="234.202754" cy="239.001977" rx="14.1249961" ry="14.3964467"></ellipse>
                <ellipse id="Oval" fill="#D9E1E2" opacity="0.202955163" cx="278.132956" cy="239.001977" rx="14.1249961" ry="14.3964467"></ellipse>
                <ellipse id="Oval" fill="#D9E1E2" opacity="0.202955163" cx="322.081454" cy="239.001977" rx="14.1249961" ry="14.3964467"></ellipse>
                <ellipse id="Oval" fill="#D9E1E2" opacity="0.202955163" cx="14.5151537" cy="283.776418" rx="14.1249961" ry="14.3964467"></ellipse>
                <ellipse id="Oval" fill="#D9E1E2" opacity="0.202955163" cx="58.4636518" cy="283.776418" rx="14.1249961" ry="14.3964467"></ellipse>
                <ellipse id="Oval" fill="#D9E1E2" opacity="0.202955163" cx="102.393853" cy="283.776418" rx="14.1249961" ry="14.3964467"></ellipse>
                <ellipse id="Oval" fill="#D9E1E2" opacity="0.202955163" cx="146.324055" cy="283.776418" rx="14.1249961" ry="14.3964467"></ellipse>
                <ellipse id="Oval" fill="#D9E1E2" opacity="0.202955163" cx="190.272553" cy="283.776418" rx="14.1249961" ry="14.3964467"></ellipse>
                <ellipse id="Oval" fill="#D9E1E2" opacity="0.202955163" cx="234.202754" cy="283.776418" rx="14.1249961" ry="14.3964467"></ellipse>
                <ellipse id="Oval" fill="#D9E1E2" opacity="0.202955163" cx="278.132956" cy="283.776418" rx="14.1249961" ry="14.3964467"></ellipse>
                <ellipse id="Oval" fill="#EFF1F1" cx="322.081454" cy="283.776418" rx="14.1249961" ry="14.3964467"></ellipse>
                <ellipse id="Oval" fill="#D9E1E2" opacity="0.202955163" cx="14.5151537" cy="328.55086" rx="14.1249961" ry="14.3964467"></ellipse>
                <ellipse id="Oval" fill="#D9E1E2" opacity="0.202955163" cx="58.4636518" cy="328.55086" rx="14.1249961" ry="14.3964467"></ellipse>
                <ellipse id="Oval" fill="#D9E1E2" opacity="0.202955163" cx="102.393853" cy="328.55086" rx="14.1249961" ry="14.3964467"></ellipse>
                <ellipse id="Oval" fill="#D9E1E2" opacity="0.202955163" cx="146.324055" cy="328.55086" rx="14.1249961" ry="14.3964467"></ellipse>
                <ellipse id="Oval" fill="#D9E1E2" opacity="0.202955163" cx="190.272553" cy="328.55086" rx="14.1249961" ry="14.3964467"></ellipse>
                <ellipse id="Oval" fill="#D9E1E2" cx="234.202754" cy="328.55086" rx="14.1249961" ry="14.3964467"></ellipse>
                <ellipse id="Oval" fill="#D9E1E2" opacity="0.202955163" cx="278.132956" cy="328.55086" rx="14.1249961" ry="14.3964467"></ellipse>
                <ellipse id="Oval" fill="#D9E1E2" opacity="0.202955163" cx="322.081454" cy="328.55086" rx="14.1249961" ry="14.3964467"></ellipse>
            </g>
        </g>
    </g>
</svg>