<?xml version="1.0" encoding="UTF-8"?>
<svg width="201px" height="35px" viewBox="0 0 201 35" version="1.1" xmlns="http://www.w3.org/2000/svg" xmlns:xlink="http://www.w3.org/1999/xlink">
    <!-- Generator: sketchtool 50 (54983) - http://www.bohemiancoding.com/sketch -->
    <title>48E55DFA-4915-4FA0-A7AA-1D7E0CD9E2C0@3x</title>
    <desc>Created with sketchtool.</desc>
    <defs>
        <linearGradient x1="50%" y1="0%" x2="50%" y2="100%" id="linearGradient-1">
            <stop stop-color="#01BEF1" offset="0%"></stop>
            <stop stop-color="#006FBA" offset="100%"></stop>
        </linearGradient>
        <linearGradient x1="50%" y1="0%" x2="50%" y2="100%" id="linearGradient-2">
            <stop stop-color="#00C0F3" offset="0%"></stop>
            <stop stop-color="#0189CB" offset="100%"></stop>
        </linearGradient>
        <linearGradient x1="50%" y1="0%" x2="50%" y2="100%" id="linearGradient-3">
            <stop stop-color="#008DCE" offset="0%"></stop>
            <stop stop-color="#0071BB" offset="100%"></stop>
        </linearGradient>
    </defs>
    <g id="Symbols" stroke="none" stroke-width="1" fill="none" fill-rule="evenodd">
        <g id="Header-/-Dark" transform="translate(-27.000000, -25.000000)">
            <g id="final-white-header" transform="translate(14.000000, 10.000000)">
                <g id="Header-/-Logo-/-Dark">
                    <g id="Group-5" transform="translate(13.000000, 15.000000)">
                        <g id="logo-circle">
                            <g id="Group">
                                <rect id="Rectangle-2-Copy-8" fill="#BCBEC0" transform="translate(5.526316, 10.346875) rotate(-315.000000) translate(-5.526316, -10.346875) " x="3.50877193" y="5.03125" width="4.03508772" height="10.63125" rx="2.01754386"></rect>
                                <rect id="Rectangle-2-Copy-9" fill="#F7941F" transform="translate(7.543860, 17.850000) rotate(-315.000000) translate(-7.543860, -17.850000) " x="5.52631579" y="9.275" width="4.03508772" height="17.15" rx="2.01754386"></rect>
                                <rect id="Rectangle-2-Copy-10" fill="#EC028C" transform="translate(19.035088, 6.409375) rotate(-315.000000) translate(-19.035088, -6.409375) " x="17.0175439" y="0.7875" width="4.03508772" height="11.24375" rx="2.01754386"></rect>
                                <rect id="Rectangle-2-Copy-11" fill="#BCBEC0" transform="translate(29.824561, 14.918750) rotate(-315.000000) translate(-29.824561, -14.918750) " x="27.8070175" y="10.63125" width="4.03508772" height="8.575" rx="2.01754386"></rect>
                                <rect id="Rectangle-2-Copy-12" fill="url(#linearGradient-1)" transform="translate(18.070175, 26.621875) rotate(-315.000000) translate(-18.070175, -26.621875) " x="16.0526316" y="16.84375" width="4.03508772" height="19.55625" rx="2.01754386"></rect>
                                <rect id="Rectangle-2-Copy-13" fill="url(#linearGradient-2)" transform="translate(27.368421, 27.343750) rotate(-315.000000) translate(-27.368421, -27.343750) " x="25.3508772" y="18.6375" width="4.03508772" height="17.4125" rx="2.01754386"></rect>
                                <rect id="Rectangle-2-Copy-14" fill="#BFD72F" transform="translate(23.377193, 11.309375) rotate(-315.000000) translate(-23.377193, -11.309375) " x="21.3596491" y="-1.00625" width="4.03508772" height="24.63125" rx="2.01754386"></rect>
                                <rect id="Rectangle-2-Copy-15" fill="url(#linearGradient-3)" transform="translate(8.815789, 25.987500) rotate(-315.000000) translate(-8.815789, -25.987500) " x="6.79824561" y="21.0875" width="4.03508772" height="9.8" rx="2.01754386"></rect>
                                <ellipse id="Oval-Copy" fill="#00C0F3" transform="translate(12.938596, 2.975000) rotate(-315.000000) translate(-12.938596, -2.975000) " cx="12.9385965" cy="2.975" rx="2.10526316" ry="2.1"></ellipse>
                            </g>
                        </g>
                        <g id="Page-1" transform="translate(42.000000, 7.000000)" fill="#4A4A4A">
                            <path d="M11.14855,16.3271554 C11.14855,16.975457 11.00174,17.2829563 10.38376,17.3445671 C10.14791,17.375095 9.64865,17.4056229 9.26546,17.4056229 C4.91204,17.4056229 4.0598,15.7426848 4.0598,13.6473605 L4.0598,8.71904676 C4.0598,5.54580995 5.38321,4.40684163 9.20769,4.40684163 C11.03089,4.40684163 13.41324,5.05292308 14.50133,5.70011463 L14.50133,1.87968627 C13.35441,1.26357768 11.64781,0.55588537 9.0895,0.55588537 C2.61767,0.55588537 0,3.97556561 0,8.41043741 L0,13.3398612 C0,19.1923379 2.82437,21.2571342 9.23631,21.2571342 C10.29472,21.2571342 11.20738,21.1328024 11.70664,21.0401086 C14.20718,20.6088326 14.79601,19.2533937 14.79601,16.6052368 L14.79601,9.48890498 L11.14855,9.48890498 L11.14855,16.3271554 Z" id="Fill-1"></path>
                            <polygon id="Fill-4" points="18.50336 20.886803 22.44444 20.886803 22.44444 0.863828658 18.50336 0.863828658"></polygon>
                            <path d="M37.298644,16.3271554 C37.298644,16.975457 37.151834,17.2829563 36.533854,17.3445671 C36.299064,17.375095 35.798744,17.4056229 35.415554,17.4056229 C31.062134,17.4056229 30.209894,15.7426848 30.209894,13.6473605 L30.209894,8.71904676 C30.209894,5.54580995 31.533304,4.40684163 35.357784,4.40684163 C37.180984,4.40684163 39.563334,5.05292308 40.652484,5.70011463 L40.652484,1.87968627 C39.504504,1.26357768 37.798964,0.55588537 35.239594,0.55588537 C28.768824,0.55588537 26.151154,3.97556561 26.151154,8.41043741 L26.151154,13.3398612 C26.151154,19.1923379 28.974464,21.2571342 35.386404,21.2571342 C36.445874,21.2571342 37.357474,21.1328024 37.857794,21.0401086 C40.357804,20.6088326 40.946104,19.2533937 40.946104,16.6052368 L40.946104,9.48890498 L37.298644,9.48890498 L37.298644,16.3271554 Z" id="Fill-6"></path>
                            <path d="M49.094536,12.3225605 L50.535606,6.59275053 C51.006776,4.74386968 51.124436,4.25209291 52.065186,4.25209291 C53.006466,4.25209291 53.125186,4.74386968 53.594766,6.59275053 L55.007216,12.3225605 L49.094536,12.3225605 Z M52.065186,0.554886275 C48.506236,0.554886275 47.771656,2.43540513 46.741866,6.4073629 L43.005896,20.887025 L46.977716,20.887025 L48.182936,16.0192121 L55.948496,16.0192121 L57.154776,20.887025 L61.125006,20.887025 L57.389566,6.4073629 C56.359776,2.43540513 55.624136,0.554886275 52.065186,0.554886275 Z" id="Fill-7"></path>
                            <path d="M72.391004,10.1668465 L68.479074,7.76402293 C67.273324,7.0235825 66.860454,6.62394449 66.860454,5.85353122 C66.860454,4.71400784 67.714814,4.4065086 69.655144,4.4065086 C71.774084,4.4065086 73.420264,4.7756187 75.068564,5.60764284 L75.068564,1.72560362 C73.567604,1.04899427 72.214514,0.555552338 69.655144,0.555552338 C64.772784,0.555552338 62.801714,2.34226727 62.801714,5.73141961 C62.801714,8.13313303 63.802354,9.70448748 65.773954,10.9061768 L69.538544,13.2168615 C71.391424,14.3558299 71.892274,14.8181888 71.892274,15.7423517 C71.892274,17.0056519 71.009824,17.4058449 68.686304,17.4058449 C66.067044,17.4058449 64.214694,16.8818751 62.508094,16.1730727 L62.508094,20.0545569 C63.949694,20.7017484 65.832254,21.2568012 68.625884,21.2568012 C73.979414,21.2568012 75.950484,19.2225327 75.950484,15.7423517 C75.950484,12.9387801 74.656224,11.5533683 72.391004,10.1668465" id="Fill-8"></path>
                            <path d="M87.421963,10.4131789 L83.011303,10.4131789 L83.011303,5.63861478 C83.011303,4.99142323 83.275773,4.71445189 83.893753,4.71445189 L87.421963,4.71445189 C89.334203,4.71445189 89.981863,5.70022564 89.981863,7.57963439 C89.981863,9.45737798 89.334203,10.4131789 87.421963,10.4131789 M87.421963,0.863495626 L82.599493,0.863495626 C80.128103,0.863495626 79.068633,1.9724911 79.068633,4.56070226 L79.068633,20.88647 L83.011303,20.88647 L83.011303,14.2641351 L87.421963,14.2641351 C92.098683,14.2641351 93.923473,11.5832302 93.923473,7.57963439 C93.923473,3.57437345 92.098683,0.863495626 87.421963,0.863495626" id="Fill-9"></path>
                            <path d="M99.600568,12.3225605 L101.041638,6.59275053 C101.511748,4.74386968 101.629408,4.25209291 102.571218,4.25209291 C103.512498,4.25209291 103.630688,4.74386968 104.100798,6.59275053 L105.512188,12.3225605 L99.600568,12.3225605 Z M102.571218,0.554886275 C99.012268,0.554886275 98.276628,2.43540513 97.247898,6.4073629 L93.511928,20.887025 L97.482158,20.887025 L98.687908,16.0192121 L106.452938,16.0192121 L107.659218,20.887025 L111.631038,20.887025 L107.894538,6.4073629 C106.866338,2.43540513 106.130168,0.554886275 102.571218,0.554886275 Z" id="Fill-10"></path>
                            <path d="M113.013596,8.59571403 L113.013596,13.5240278 C113.013596,19.0690051 115.984776,21.2570232 121.337776,21.2570232 C123.690976,21.2570232 124.985236,20.85461 126.337796,19.993168 L126.337796,16.1732947 C125.368956,16.8204863 123.720126,17.406067 121.513736,17.406067 C117.867866,17.406067 117.072336,15.6498799 117.072336,13.5240278 L117.072336,8.59571403 C117.072336,5.76216953 118.308296,4.40673062 121.367456,4.40673062 C123.661826,4.40673062 125.368956,5.11497798 126.337796,5.70055867 L126.337796,1.87957526 C124.956086,1.10971704 123.808106,0.555774359 121.367456,0.555774359 C115.661476,0.555774359 113.013596,3.69792821 113.013596,8.59571403" id="Fill-11"></path>
                            <path d="M129.33908,4.56020271 L129.33908,17.1898739 C129.33908,19.7764199 130.39855,20.8870805 132.86835,20.8870805 L143.01732,20.8870805 L143.01732,17.0361243 L134.16314,17.0361243 C133.54569,17.0361243 133.28069,16.7585979 133.28069,16.1114063 L133.28069,12.5690594 L141.84072,12.5690594 L141.84072,8.71865822 L133.28069,8.71865822 L133.28069,5.63922534 C133.28069,4.99092368 133.54569,4.71395234 134.16314,4.71395234 L143.01732,4.71395234 L143.01732,0.863551131 L132.86835,0.863551131 C130.39855,0.863551131 129.33908,1.97254661 129.33908,4.56020271" id="Fill-12"></path>
                            <path d="M155.429655,10.1668465 L151.517725,7.76402293 C150.311445,7.0235825 149.898575,6.62394449 149.898575,5.85353122 C149.898575,4.71400784 150.752935,4.4065086 152.693795,4.4065086 C154.812735,4.4065086 156.458385,4.7756187 158.106685,5.60764284 L158.106685,1.72560362 C156.605725,1.04899427 155.253165,0.555552338 152.693795,0.555552338 C147.811435,0.555552338 145.840365,2.34226727 145.840365,5.73141961 C145.840365,8.13313303 146.841005,9.70448748 148.812075,10.9061768 L152.576135,13.2168615 C154.429015,14.3558299 154.930395,14.8181888 154.930395,15.7423517 C154.930395,17.0056519 154.047415,17.4058449 151.723365,17.4058449 C149.105695,17.4058449 147.252285,16.8818751 145.546215,16.1730727 L145.546215,20.0545569 C146.987815,20.7017484 148.870905,21.2568012 151.664535,21.2568012 C157.018065,21.2568012 158.989135,19.2225327 158.989135,15.7423517 C158.989135,12.9387801 157.694345,11.5533683 155.429655,10.1668465" id="Fill-13"></path>
                        </g>
                    </g>
                </g>
            </g>
        </g>
    </g>
</svg>