<svg width="111" height="17" viewBox="0 0 111 17" fill="none" xmlns="http://www.w3.org/2000/svg">
<g clip-path="url(#clip0_3435_1228)">
<path d="M52.3413 14.6612C50.5967 14.6612 49.1792 14.1102 48.0946 13.0084C47.01 11.9066 46.4648 10.4432 46.4648 8.61257V8.27399C46.4648 7.05165 46.7001 5.95556 47.1764 4.99146C47.647 4.02736 48.3127 3.27559 49.1678 2.74189C50.0228 2.20246 50.9755 1.93848 52.0256 1.93848C53.6956 1.93848 54.9868 2.47217 55.8992 3.53957C56.8117 4.60697 57.2651 6.11624 57.2651 8.0674V9.1807H49.2481C49.3284 10.1965 49.667 10.9941 50.2639 11.5852C50.8549 12.1763 51.6067 12.469 52.5019 12.469C53.7645 12.469 54.7917 11.9582 55.5894 10.9367L57.0757 12.3542C56.5822 13.0888 55.9279 13.6569 55.1073 14.0586C54.2867 14.4603 53.3627 14.6612 52.3413 14.6612ZM52.0142 4.14787C51.2566 4.14787 50.6483 4.41185 50.1835 4.93981C49.7187 5.46777 49.4203 6.20806 49.294 7.14921H54.5449V6.94261C54.4818 6.01868 54.2408 5.3243 53.8104 4.84799C53.3742 4.3889 52.7774 4.14787 52.0142 4.14787Z" fill="white"/>
<path d="M65.8274 4.68145C65.4658 4.61832 65.0928 4.58963 64.7026 4.58963C63.4401 4.58963 62.5907 5.07168 62.1489 6.04152V14.4372H59.3943V2.16216H62.0283L62.0972 3.53371C62.7629 2.46632 63.6868 1.93262 64.8633 1.93262C65.2535 1.93262 65.5806 1.98427 65.8388 2.0933L65.8274 4.68145Z" fill="white"/>
<path d="M74.6762 14.4372C74.5557 14.2019 74.4466 13.8232 74.3606 13.2895C73.4825 14.2019 72.4094 14.661 71.1411 14.661C69.9073 14.661 68.9031 14.311 68.1226 13.6051C67.3421 12.8993 66.9519 12.0327 66.9519 10.994C66.9519 9.68559 67.4397 8.68132 68.4095 7.9812C69.3794 7.28108 70.7681 6.93102 72.5758 6.93102H74.263V6.1276C74.263 5.4906 74.0851 4.9856 73.7293 4.60111C73.3735 4.21662 72.8341 4.02724 72.1052 4.02724C71.4797 4.02724 70.9632 4.18218 70.5615 4.49781C70.1598 4.81344 69.959 5.20941 69.959 5.6972H67.2044C67.2044 5.02577 67.4282 4.39451 67.8758 3.80917C68.3234 3.22382 68.926 2.76473 69.695 2.43188C70.464 2.09904 71.319 1.93262 72.2659 1.93262C73.7006 1.93262 74.8483 2.29415 75.7034 3.01723C76.5585 3.7403 76.9946 4.75605 77.0176 6.06447V11.5966C77.0176 12.6984 77.1725 13.5822 77.4824 14.2421V14.4372H74.6762ZM71.6519 12.4516C72.1971 12.4516 72.7078 12.3196 73.1899 12.0557C73.6719 11.7917 74.0334 11.4359 74.2745 10.9883V8.67558H72.7881C71.7667 8.67558 70.9977 8.85348 70.4869 9.20928C69.9705 9.56507 69.7179 10.0701 69.7179 10.7186C69.7179 11.2465 69.8959 11.6712 70.2459 11.9811C70.5902 12.2967 71.0608 12.4516 71.6519 12.4516Z" fill="white"/>
<path d="M86.7907 11.1032C86.7907 10.6096 86.5899 10.2366 86.1824 9.97838C85.775 9.72014 85.1093 9.49633 84.1682 9.29548C83.2327 9.10036 82.4465 8.84786 81.821 8.54945C80.4437 7.88376 79.7551 6.91966 79.7551 5.65715C79.7551 4.60123 80.2027 3.71173 81.0922 3.00587C81.9817 2.29428 83.118 1.93848 84.4953 1.93848C85.9644 1.93848 87.1465 2.30001 88.0532 3.02883C88.9542 3.7519 89.4076 4.69879 89.4076 5.85226H86.653C86.653 5.3243 86.4579 4.88242 86.0619 4.53236C85.666 4.1823 85.1495 4.00441 84.4953 4.00441C83.8927 4.00441 83.3992 4.14213 83.0147 4.42333C82.6302 4.70453 82.4408 5.07754 82.4408 5.54811C82.4408 5.97278 82.6187 6.29988 82.9745 6.53517C83.3303 6.77045 84.0476 7.00574 85.1323 7.24676C86.2111 7.48779 87.0605 7.76899 87.6802 8.09609C88.2943 8.4232 88.7534 8.81917 89.0518 9.284C89.3502 9.7431 89.4994 10.3055 89.4994 10.9654C89.4994 12.0673 89.0403 12.9625 88.1279 13.6454C87.2154 14.3283 86.016 14.6726 84.5297 14.6726C83.5254 14.6726 82.6302 14.489 81.844 14.1275C81.0578 13.7659 80.4437 13.2667 80.0076 12.6297C79.5715 11.9927 79.3477 11.3098 79.3477 10.5752H82.0219C82.0621 11.2237 82.3031 11.7287 82.7564 12.0787C83.2098 12.4288 83.8124 12.6067 84.5584 12.6067C85.2815 12.6067 85.8381 12.469 86.2169 12.1935C86.6014 11.9123 86.7907 11.5508 86.7907 11.1032Z" fill="white"/>
<path d="M97.3039 14.6612C95.5593 14.6612 94.1419 14.1102 93.0573 13.0084C91.9727 11.9066 91.4275 10.4432 91.4275 8.61257V8.27399C91.4275 7.05165 91.6628 5.95556 92.1391 4.99146C92.6097 4.02736 93.2753 3.27559 94.1304 2.74189C94.9855 2.20246 95.9381 1.93848 96.9883 1.93848C98.6582 1.93848 99.9494 2.47217 100.862 3.53957C101.774 4.60697 102.228 6.11624 102.228 8.0674V9.1807H94.2108C94.2911 10.1965 94.6297 10.9941 95.2265 11.5852C95.8176 12.1763 96.5694 12.469 97.4646 12.469C98.7271 12.469 99.7543 11.9582 100.552 10.9367L102.038 12.3542C101.545 13.0888 100.891 13.6569 100.07 14.0586C99.2493 14.4603 98.3254 14.6612 97.3039 14.6612ZM96.9768 4.14787C96.2193 4.14787 95.611 4.41185 95.1462 4.93981C94.6813 5.46777 94.3829 6.20806 94.2567 7.14921H99.5076V6.94261C99.4444 6.01868 99.2034 5.3243 98.773 4.84799C98.3369 4.3889 97.74 4.14787 96.9768 4.14787Z" fill="white"/>
<path d="M110.79 4.68145C110.428 4.61832 110.055 4.58963 109.665 4.58963C108.402 4.58963 107.553 5.07168 107.111 6.04152V14.4372H104.357V2.16216H106.991L107.06 3.53371C107.725 2.46632 108.649 1.93262 109.826 1.93262C110.216 1.93262 110.543 1.98427 110.801 2.0933L110.79 4.68145Z" fill="white"/>
<path d="M19.6308 16.1704H1.64004C0.716109 16.1704 0.14224 14.8563 0.618551 13.829L6.47775 1.17523C6.69008 0.710395 7.08032 0.429199 7.49924 0.429199H19.6366V16.1704H19.6308Z" fill="#EC2C40"/>
<path d="M21.6968 0.429199H39.6933C40.6172 0.429199 41.1911 1.74336 40.7148 2.77058L34.8556 15.4244C34.6433 15.8892 34.253 16.1704 33.8341 16.1704H21.6968V0.429199Z" fill="#00A9E5"/>
</g>
<defs>
<clipPath id="clip0_3435_1228">
<rect width="110.355" height="15.7412" fill="white" transform="translate(0.446289 0.429199)"/>
</clipPath>
</defs>
</svg>
