<?xml version="1.0" encoding="UTF-8"?> <svg xmlns="http://www.w3.org/2000/svg" xmlns:xlink="http://www.w3.org/1999/xlink" width="36px" height="36px" viewBox="0 0 36 36" version="1.1"><!-- Generator: Sketch 61.2 (89653) - https://sketch.com --><title>icon_note</title><desc>Created with Sketch.</desc><g id="icon_note" stroke="none" stroke-width="1" fill="none" fill-rule="evenodd"><g id="note" transform="translate(0.000000, 3.000000)" fill="#6D7278" fill-rule="nonzero"><path d="M28.9469388,25.4938776 L28.2857143,26.155102 C27.5510204,26.8897959 26.5959184,27.2571429 25.5673469,27.2571429 L23.6571429,27.2571429 C21.8938776,27.2571429 19.9836735,25.8612245 19.9836735,23.4367347 L19.9836735,21.6 C19.9836735,20.1306122 20.644898,19.2489796 21.0122449,18.7346939 L28.9469388,10.6530612 C29.1673469,10.4326531 29.3877551,9.91836735 29.3877551,9.6244898 L29.3877551,3.52653061 C29.3877551,1.61632653 27.7714286,6.52539247e-16 25.8612245,6.52539247e-16 L7.05306122,6.52539247e-16 C5.14285714,6.52539247e-16 3.52653061,1.76326531 3.52653061,3.52653061 L2.35102041,3.52653061 C1.02857143,3.52653061 -4.56777473e-15,4.62857143 -4.56777473e-15,5.95102041 C-4.56777473e-15,7.27346939 1.02857143,8.30204082 2.35102041,8.30204082 L3.52653061,8.30204082 L3.52653061,13.077551 L2.35102041,13.077551 C1.02857143,13.077551 -4.56777473e-15,14.1061224 -4.56777473e-15,15.4285714 C-4.56777473e-15,16.7510204 1.02857143,17.7795918 2.35102041,17.7795918 L3.52653061,17.7795918 L3.52653061,22.555102 L2.35102041,22.555102 C1.02857143,22.555102 -4.56777473e-15,23.6571429 -4.56777473e-15,24.9061224 C-4.56777473e-15,26.2285714 1.02857143,27.2571429 2.35102041,27.2571429 L3.52653061,27.2571429 C3.52653061,29.6081633 5.14285714,30.7836735 7.05306122,30.7836735 L25.8612245,30.7836735 C27.7714286,30.7836735 29.3877551,29.1673469 29.3877551,27.2571429 L29.3877551,25.7142857 C29.3877551,25.3469388 29.2408163,25.2734694 28.9469388,25.4938776 Z M22.922449,8.88979592 C22.922449,9.55102041 22.4081633,10.0653061 21.7469388,10.0653061 L9.99183673,10.0653061 C9.33061224,10.0653061 8.81632653,9.55102041 8.81632653,8.88979592 L8.81632653,7.71428571 C8.81632653,7.05306122 9.33061224,6.53877551 9.99183673,6.53877551 L21.7469388,6.53877551 C22.4081633,6.53877551 22.922449,7.05306122 22.922449,7.71428571 L22.922449,8.88979592 Z M17.6326531,23.1428571 C17.6326531,23.8040816 17.1183673,24.3183673 16.4571429,24.3183673 L9.99183673,24.3183673 C9.33061224,24.3183673 8.81632653,23.8040816 8.81632653,23.1428571 L8.81632653,21.9673469 C8.81632653,21.3061224 9.33061224,20.7918367 9.99183673,20.7918367 L16.4571429,20.7918367 C17.1183673,20.7918367 17.6326531,21.3061224 17.6326531,21.9673469 L17.6326531,23.1428571 Z M19.3959184,16.0163265 C19.3959184,16.677551 18.8816327,17.1918367 18.2204082,17.1918367 L9.99183673,17.1918367 C9.33061224,17.1918367 8.81632653,16.677551 8.81632653,16.0163265 L8.81632653,14.8408163 C8.81632653,14.1795918 9.33061224,13.6653061 9.99183673,13.6653061 L18.2204082,13.6653061 C18.8816327,13.6653061 19.3959184,14.1795918 19.3959184,14.8408163 L19.3959184,16.0163265 Z M34.8979592,12.7836735 L34.1632653,12.0489796 C33.722449,11.6081633 32.9877551,11.6081633 32.5469388,12.0489796 L23.5836735,21.3061224 C23.5102041,21.3061224 23.5102041,21.4530612 23.5102041,21.4530612 L23.5102041,23.4367347 C23.5102041,23.5836735 23.5102041,23.7306122 23.6571429,23.7306122 L25.5673469,23.7306122 C25.6408163,23.7306122 25.7142857,23.6571429 25.7877551,23.6571429 L34.8244898,14.5469388 C35.4122449,14.0326531 35.4122449,13.2979592 34.8979592,12.7836735 L34.8979592,12.7836735 Z" id="Shape"></path></g></g></svg> 