<?xml version="1.0" encoding="UTF-8"?>
<svg width="12px" height="12px" viewBox="0 0 12 12" version="1.1" xmlns="http://www.w3.org/2000/svg" xmlns:xlink="http://www.w3.org/1999/xlink">
    <!-- Generator: Sketch 51.3 (57544) - http://www.bohemiancoding.com/sketch -->
    <title>Download</title>
    <desc>Created with Sketch.</desc>
    <defs></defs>
    <g id="Tunnel-App" stroke="none" stroke-width="1" fill="none" fill-rule="evenodd">
        <g id="Tunnel-7" transform="translate(-449.000000, -301.000000)" fill="#FFFFFF" fill-rule="nonzero">
            <g id="Download" transform="translate(449.000000, 301.000000)">
                <path d="M2.5216,5.53186364 L3.43213333,4.60063636 C3.51986667,4.51090909 3.66333333,4.51090909 3.75106667,4.60063636 L5.13066667,6.01159091 L5.13066667,0.2715 C5.13066667,0.144681818 5.23213333,0.0407727273 5.35626667,0.0407727273 L6.64386667,0.0407727273 C6.76786667,0.0407727273 6.86946667,0.144545455 6.86946667,0.2715 L6.86946667,6.01159091 L8.24906667,4.60063636 C8.3368,4.51090909 8.48026667,4.51090909 8.568,4.60063636 L9.47853333,5.53186364 C9.56626667,5.62159091 9.56626667,5.76831818 9.47853333,5.85804545 L6.17106667,9.24068182 C6.12426667,9.28854545 6.0616,9.31009091 6,9.30681818 C5.9384,9.31009091 5.87573333,9.28854545 5.82893333,9.24068182 L2.5216,5.85818182 C2.43386667,5.76845455 2.43386667,5.62159091 2.5216,5.53186364 Z M11.9050667,11.7553636 L11.9050667,6.42927273 C11.9050667,6.42927273 11.9054667,6.35727273 11.8438667,6.29822727 C11.7961333,6.25240909 11.7282667,6.25240909 11.7282667,6.25240909 L10.5297333,6.25240909 C10.5297333,6.25240909 10.4790667,6.25254545 10.4249333,6.30245455 C10.3689333,6.35413636 10.3689333,6.42054545 10.3689333,6.42054545 L10.3689333,10.3881818 L1.63106667,10.3881818 L1.63106667,6.42927273 C1.63106667,6.42927273 1.63146667,6.35727273 1.56986667,6.29822727 C1.52213333,6.25240909 1.45426667,6.25240909 1.45426667,6.25240909 L0.255866667,6.25240909 C0.255866667,6.25240909 0.2052,6.25254545 0.151066667,6.30245455 C0.0950666667,6.35413636 0.0950666667,6.42054545 0.0950666667,6.42054545 L0.0950666667,11.7589091 C0.0950666667,11.8689545 0.1832,11.9590909 0.2908,11.9590909 L11.7058667,11.9590909 C11.8153333,11.9592273 11.9050667,11.8674545 11.9050667,11.7553636 Z"></path>
            </g>
        </g>
    </g>
</svg>