<svg width="256" height="44" viewBox="0 0 256 44" fill="none" xmlns="http://www.w3.org/2000/svg">
<path d="M78.9091 33H72.0909V9.72727H79.3182C81.5379 9.72727 83.4356 10.1894 85.0114 11.1136C86.5947 12.0379 87.8068 13.3636 88.6477 15.0909C89.4886 16.8182 89.9091 18.8902 89.9091 21.3068C89.9091 23.7462 89.4773 25.8409 88.6136 27.5909C87.7576 29.3333 86.5076 30.6705 84.8636 31.6023C83.2273 32.5341 81.2424 33 78.9091 33ZM74.2159 31.0909H78.7841C80.7841 31.0909 82.4583 30.697 83.8068 29.9091C85.1553 29.1212 86.1667 27.9962 86.8409 26.5341C87.5152 25.072 87.8523 23.3295 87.8523 21.3068C87.8447 19.2992 87.5114 17.572 86.8523 16.125C86.2008 14.678 85.2311 13.5682 83.9432 12.7955C82.6629 12.0227 81.0795 11.6364 79.1932 11.6364H74.2159V31.0909ZM93.8619 33V15.5455H95.896V33H93.8619ZM94.896 12.5455C94.4794 12.5455 94.1233 12.4053 93.8278 12.125C93.5324 11.8371 93.3847 11.4924 93.3847 11.0909C93.3847 10.6894 93.5324 10.3485 93.8278 10.0682C94.1233 9.7803 94.4794 9.63636 94.896 9.63636C95.3127 9.63636 95.6688 9.7803 95.9642 10.0682C96.2597 10.3485 96.4074 10.6894 96.4074 11.0909C96.4074 11.4924 96.2597 11.8371 95.9642 12.125C95.6688 12.4053 95.3127 12.5455 94.896 12.5455ZM105.32 33.3977C104.267 33.3977 103.305 33.1932 102.434 32.7841C101.563 32.3674 100.87 31.7689 100.355 30.9886C99.8394 30.2008 99.5818 29.2462 99.5818 28.125C99.5818 27.2614 99.7447 26.5341 100.07 25.9432C100.396 25.3523 100.858 24.8674 101.457 24.4886C102.055 24.1098 102.764 23.8106 103.582 23.5909C104.4 23.3712 105.302 23.2008 106.286 23.0795C107.264 22.9583 108.089 22.8523 108.764 22.7614C109.445 22.6705 109.964 22.5265 110.32 22.3295C110.677 22.1326 110.855 21.8144 110.855 21.375V20.9659C110.855 19.7765 110.498 18.8409 109.786 18.1591C109.082 17.4697 108.067 17.125 106.741 17.125C105.483 17.125 104.457 17.4015 103.661 17.9545C102.873 18.5076 102.32 19.1591 102.002 19.9091L100.082 19.2159C100.476 18.2614 101.021 17.5 101.718 16.9318C102.415 16.3561 103.195 15.9432 104.059 15.6932C104.923 15.4356 105.798 15.3068 106.684 15.3068C107.351 15.3068 108.044 15.3939 108.764 15.5682C109.491 15.7424 110.165 16.0455 110.786 16.4773C111.408 16.9015 111.911 17.4962 112.298 18.2614C112.684 19.0189 112.877 19.9811 112.877 21.1477V33H110.855V30.2386H110.73C110.487 30.7538 110.127 31.2538 109.65 31.7386C109.173 32.2235 108.574 32.6212 107.855 32.9318C107.135 33.2424 106.29 33.3977 105.32 33.3977ZM105.593 31.5455C106.669 31.5455 107.601 31.3068 108.389 30.8295C109.177 30.3523 109.783 29.7197 110.207 28.9318C110.639 28.1364 110.855 27.2614 110.855 26.3068V23.7841C110.703 23.928 110.449 24.0568 110.093 24.1705C109.745 24.2841 109.339 24.3864 108.877 24.4773C108.423 24.5606 107.968 24.6326 107.514 24.6932C107.059 24.7538 106.65 24.8068 106.286 24.8523C105.302 24.9735 104.461 25.1629 103.764 25.4205C103.067 25.678 102.533 26.0341 102.161 26.4886C101.79 26.9356 101.605 27.5114 101.605 28.2159C101.605 29.2765 101.983 30.0985 102.741 30.6818C103.498 31.2576 104.449 31.5455 105.593 31.5455ZM124.117 39.9091C122.928 39.9091 121.886 39.7538 120.992 39.4432C120.098 39.1402 119.344 38.7235 118.731 38.1932C118.117 37.6629 117.64 37.0682 117.299 36.4091L118.958 35.3182C119.208 35.7576 119.541 36.1894 119.958 36.6136C120.382 37.0379 120.931 37.3902 121.606 37.6705C122.287 37.9508 123.125 38.0909 124.117 38.0909C125.662 38.0909 126.909 37.7045 127.856 36.9318C128.81 36.1591 129.287 34.9583 129.287 33.3295V29.3977H129.106C128.871 29.928 128.534 30.4583 128.094 30.9886C127.655 31.5114 127.079 31.947 126.367 32.2955C125.662 32.6439 124.787 32.8182 123.742 32.8182C122.348 32.8182 121.109 32.4735 120.026 31.7841C118.95 31.0947 118.102 30.1098 117.481 28.8295C116.867 27.5417 116.56 26.0076 116.56 24.2273C116.56 22.4621 116.859 20.9091 117.458 19.5682C118.064 18.2273 118.909 17.1818 119.992 16.4318C121.075 15.6818 122.337 15.3068 123.776 15.3068C124.844 15.3068 125.731 15.4962 126.435 15.875C127.14 16.2462 127.704 16.7083 128.128 17.2614C128.56 17.8144 128.897 18.3523 129.14 18.875H129.344V15.5455H131.322V33.4545C131.322 34.9318 131.007 36.1477 130.378 37.1023C129.75 38.0568 128.894 38.7614 127.81 39.2159C126.727 39.678 125.496 39.9091 124.117 39.9091ZM123.981 30.9659C125.102 30.9659 126.06 30.697 126.856 30.1591C127.651 29.6136 128.261 28.8333 128.685 27.8182C129.109 26.803 129.322 25.5947 129.322 24.1932C129.322 22.8295 129.113 21.6212 128.697 20.5682C128.28 19.5076 127.674 18.6742 126.878 18.0682C126.091 17.4545 125.125 17.1477 123.981 17.1477C122.814 17.1477 121.829 17.4621 121.026 18.0909C120.223 18.7197 119.617 19.5682 119.208 20.6364C118.799 21.697 118.594 22.8826 118.594 24.1932C118.594 25.5265 118.803 26.7045 119.219 27.7273C119.636 28.7424 120.246 29.5379 121.049 30.1136C121.852 30.6818 122.829 30.9659 123.981 30.9659ZM135.877 33V15.5455H137.843V18.2273H137.99C138.339 17.3485 138.945 16.6402 139.809 16.1023C140.68 15.5568 141.665 15.2841 142.763 15.2841C142.93 15.2841 143.115 15.2879 143.32 15.2955C143.524 15.303 143.695 15.3106 143.831 15.3182V17.375C143.74 17.3598 143.581 17.3371 143.354 17.3068C143.127 17.2765 142.88 17.2614 142.615 17.2614C141.706 17.2614 140.896 17.4545 140.184 17.8409C139.479 18.2197 138.922 18.7462 138.513 19.4205C138.104 20.0947 137.899 20.8636 137.899 21.7273V33H135.877ZM151.358 33.3977C150.305 33.3977 149.343 33.1932 148.472 32.7841C147.6 32.3674 146.907 31.7689 146.392 30.9886C145.877 30.2008 145.619 29.2462 145.619 28.125C145.619 27.2614 145.782 26.5341 146.108 25.9432C146.434 25.3523 146.896 24.8674 147.494 24.4886C148.093 24.1098 148.801 23.8106 149.619 23.5909C150.438 23.3712 151.339 23.2008 152.324 23.0795C153.301 22.9583 154.127 22.8523 154.801 22.7614C155.483 22.6705 156.002 22.5265 156.358 22.3295C156.714 22.1326 156.892 21.8144 156.892 21.375V20.9659C156.892 19.7765 156.536 18.8409 155.824 18.1591C155.119 17.4697 154.104 17.125 152.778 17.125C151.521 17.125 150.494 17.4015 149.699 17.9545C148.911 18.5076 148.358 19.1591 148.04 19.9091L146.119 19.2159C146.513 18.2614 147.059 17.5 147.756 16.9318C148.453 16.3561 149.233 15.9432 150.097 15.6932C150.96 15.4356 151.835 15.3068 152.722 15.3068C153.388 15.3068 154.081 15.3939 154.801 15.5682C155.528 15.7424 156.203 16.0455 156.824 16.4773C157.445 16.9015 157.949 17.4962 158.335 18.2614C158.722 19.0189 158.915 19.9811 158.915 21.1477V33H156.892V30.2386H156.767C156.525 30.7538 156.165 31.2538 155.688 31.7386C155.21 32.2235 154.612 32.6212 153.892 32.9318C153.172 33.2424 152.328 33.3977 151.358 33.3977ZM151.631 31.5455C152.706 31.5455 153.638 31.3068 154.426 30.8295C155.214 30.3523 155.82 29.7197 156.244 28.9318C156.676 28.1364 156.892 27.2614 156.892 26.3068V23.7841C156.741 23.928 156.487 24.0568 156.131 24.1705C155.782 24.2841 155.377 24.3864 154.915 24.4773C154.46 24.5606 154.006 24.6326 153.551 24.6932C153.097 24.7538 152.688 24.8068 152.324 24.8523C151.339 24.9735 150.498 25.1629 149.801 25.4205C149.104 25.678 148.57 26.0341 148.199 26.4886C147.828 26.9356 147.642 27.5114 147.642 28.2159C147.642 29.2765 148.021 30.0985 148.778 30.6818C149.536 31.2576 150.487 31.5455 151.631 31.5455ZM163.495 33V15.5455H165.461V18.2273H165.643C165.992 17.3258 166.571 16.6174 167.382 16.1023C168.2 15.5795 169.181 15.3182 170.325 15.3182C171.53 15.3182 172.518 15.6023 173.291 16.1705C174.071 16.7311 174.655 17.5038 175.041 18.4886H175.189C175.583 17.5189 176.223 16.75 177.109 16.1818C178.003 15.6061 179.086 15.3182 180.359 15.3182C181.98 15.3182 183.261 15.8295 184.2 16.8523C185.139 17.8674 185.609 19.3523 185.609 21.3068V33H183.586V21.3068C183.586 19.928 183.234 18.8939 182.53 18.2045C181.825 17.5152 180.897 17.1705 179.745 17.1705C178.412 17.1705 177.386 17.5795 176.666 18.3977C175.946 19.2159 175.586 20.2538 175.586 21.5114V33H173.518V21.125C173.518 19.9432 173.189 18.9886 172.53 18.2614C171.87 17.5341 170.942 17.1705 169.745 17.1705C168.942 17.1705 168.219 17.3674 167.575 17.7614C166.939 18.1553 166.435 18.7045 166.064 19.4091C165.7 20.1061 165.518 20.9091 165.518 21.8182V33H163.495ZM207.728 17.3295C207.599 16.8523 207.41 16.4318 207.16 16.0682C206.91 15.697 206.603 15.3826 206.239 15.125C205.876 14.8674 205.459 14.6742 204.989 14.5455C204.52 14.4091 204.004 14.3409 203.444 14.3409C202.315 14.3409 201.338 14.6136 200.512 15.1591C199.694 15.7045 199.061 16.5 198.614 17.5455C198.167 18.5833 197.944 19.8447 197.944 21.3295C197.944 22.822 198.16 24.0947 198.591 25.1477C199.023 26.2008 199.648 27.0038 200.466 27.5568C201.285 28.1098 202.277 28.3864 203.444 28.3864C204.474 28.3864 205.345 28.2197 206.057 27.8864C206.777 27.5455 207.323 27.0644 207.694 26.4432C208.065 25.822 208.251 25.0909 208.251 24.25L209.296 24.375H203.637V20.2727H213.671V23.3523C213.671 25.4356 213.228 27.2197 212.341 28.7045C211.463 30.1894 210.251 31.3295 208.705 32.125C207.167 32.9205 205.398 33.3182 203.398 33.3182C201.179 33.3182 199.228 32.8371 197.546 31.875C195.864 30.9129 194.554 29.5417 193.614 27.7614C192.675 25.9735 192.205 23.8523 192.205 21.3977C192.205 19.4886 192.489 17.7955 193.057 16.3182C193.626 14.8333 194.417 13.5758 195.432 12.5455C196.455 11.5152 197.637 10.7348 198.978 10.2045C200.326 9.67424 201.777 9.40909 203.33 9.40909C204.679 9.40909 205.932 9.60227 207.091 9.98864C208.258 10.375 209.288 10.9205 210.182 11.625C211.084 12.3295 211.815 13.1667 212.376 14.1364C212.936 15.1061 213.285 16.1705 213.421 17.3295H207.728ZM216.186 33V9.72727H225.8C227.542 9.72727 229.046 10.0682 230.311 10.75C231.584 11.4242 232.565 12.3674 233.255 13.5795C233.944 14.7841 234.289 16.1856 234.289 17.7841C234.289 19.3902 233.936 20.7955 233.232 22C232.535 23.197 231.539 24.125 230.243 24.7841C228.948 25.4432 227.41 25.7727 225.63 25.7727H219.698V21.3409H224.584C225.433 21.3409 226.141 21.1932 226.709 20.8977C227.285 20.6023 227.72 20.1894 228.016 19.6591C228.311 19.1212 228.459 18.4962 228.459 17.7841C228.459 17.0644 228.311 16.4432 228.016 15.9205C227.72 15.3902 227.285 14.9811 226.709 14.6932C226.133 14.4053 225.425 14.2614 224.584 14.2614H221.811V33H216.186ZM235.5 14.2955V9.72727H255.17V14.2955H248.114V33H242.568V14.2955H235.5Z" fill="white"/>
<g clip-path="url(#clip0_3435_1233)">
<path d="M22.92 30.3419H1.36144C0.254286 30.3419 -0.433386 28.9224 0.137382 27.8128L7.15852 14.1447C7.41296 13.6426 7.88058 13.3389 8.38258 13.3389H22.9269V30.3419H22.92Z" fill="white"/>
<path d="M25.3962 13.3389H46.9617C48.0688 13.3389 48.7565 14.7584 48.1857 15.8679L41.1646 29.5361C40.9101 30.0382 40.4425 30.3419 39.9405 30.3419H25.3962V13.3389Z" fill="white"/>
</g>
<defs>
<clipPath id="clip0_3435_1233">
<rect width="48" height="44" fill="white"/>
</clipPath>
</defs>
</svg>
