<svg width="285" height="188" viewBox="0 0 285 188" fill="none" xmlns="http://www.w3.org/2000/svg">
<g clip-path="url(#clip0_1670_27261)">
<path d="M173.392 55.6657C173.392 25.1973 198.121 0.5 228.629 0.5" stroke="#6B57FF" stroke-linecap="round" stroke-linejoin="round"/>
<path d="M273.398 55.1657C273.398 67.5662 268.364 78.7917 260.226 86.9185L267.487 94.1699H267.499C277.493 84.1885 283.669 70.3999 283.669 55.1657C283.669 24.6973 258.94 0 228.433 0V10.2579C253.266 10.2579 273.398 30.3648 273.398 55.1657Z" fill="black"/>
<path d="M207.994 31.9546L228.623 55.9319H267.678" stroke="#6B57FF" stroke-linecap="round" stroke-linejoin="round"/>
<path d="M191.535 15.7468L198.219 22.428" stroke="#6B57FF" stroke-linecap="round" stroke-linejoin="round"/>
<path d="M173.611 55.8628H183.075" stroke="#6B57FF" stroke-linecap="round" stroke-linejoin="round"/>
<path d="M69.8333 43.1858C72.2901 47.0275 76.5981 49.579 81.5058 49.579C88.5186 49.579 94.3087 44.3665 95.2199 37.6105C95.2602 37.6105 95.3064 37.6162 95.3467 37.6162C97.5786 37.6162 99.3837 35.8135 99.3837 33.5845C99.3837 31.3555 97.5786 29.5527 95.3467 29.5527C94.8738 29.5527 94.4182 29.6391 93.9973 29.7889C91.7654 25.1409 87.0134 21.927 81.5058 21.927C75.9983 21.927 71.2463 25.1351 69.0144 29.7889C68.5934 29.6391 68.1378 29.5527 67.6649 29.5527C66.4192 29.5527 65.3004 30.1172 64.5623 31.0042" stroke="#6B57FF" stroke-miterlimit="10"/>
<path d="M84.8276 40.2772V42.3449C84.8276 42.8691 85.2544 43.2895 85.7792 43.2895C86.304 43.2895 86.725 42.8633 86.725 42.3392V40.2715C86.725 39.7474 86.2982 39.3269 85.7734 39.3269C85.2486 39.3269 84.8276 39.7531 84.8276 40.2772Z" fill="black"/>
<path d="M76.4653 40.2772V42.3449C76.4653 42.8691 76.8921 43.2895 77.4169 43.2895C77.9417 43.2895 78.3627 42.8633 78.3627 42.3392V40.2715C78.3627 39.7474 77.9359 39.3269 77.4111 39.3269C76.8863 39.3269 76.4653 39.7531 76.4653 40.2772Z" fill="black"/>
<path d="M94.4355 29.5761C94.4355 29.5761 94.3086 29.1153 94.1414 28.8619C91.8864 24.2139 87.0767 21 81.5058 21C75.9348 21 71.1251 24.2081 68.8702 28.8619C68.824 28.9425 68.6799 29.242 68.5991 29.5761H94.4355Z" fill="black"/>
<path d="M81.5979 21.8924C85.42 21.8924 88.5184 18.798 88.5184 14.9809C88.5184 11.1637 85.42 8.06934 81.5979 8.06934C77.7759 8.06934 74.6775 11.1637 74.6775 14.9809C74.6775 18.798 77.7759 21.8924 81.5979 21.8924Z" fill="black"/>
<path d="M70.6465 13.8231C74.4686 13.8231 77.567 10.7287 77.567 6.91155C77.567 3.09441 74.4686 0 70.6465 0C66.8245 0 63.7261 3.09441 63.7261 6.91155C63.7261 10.7287 66.8245 13.8231 70.6465 13.8231Z" fill="black"/>
<path d="M59.6314 21.8924C63.4535 21.8924 66.5518 18.798 66.5518 14.9809C66.5518 11.1637 63.4535 8.06934 59.6314 8.06934C55.8093 8.06934 52.7109 11.1637 52.7109 14.9809C52.7109 18.798 55.8093 21.8924 59.6314 21.8924Z" fill="black"/>
<path d="M122.948 187.234L122.942 187.326L133.317 187.24L122.948 187.234Z" fill="#6B57FF"/>
<path d="M56.0098 56.3752V60.6201V64.2083L58.9683 61.2594" stroke="#6B57FF" stroke-linecap="round" stroke-linejoin="round"/>
<path d="M28.2703 83.7221C31.7478 72.4217 42.2784 64.2085 54.7352 64.2085C55.162 64.2085 55.583 64.22 56.004 64.2373" stroke="#6B57FF" stroke-linecap="round" stroke-linejoin="round"/>
<path d="M21.4016 30.2036C23.4374 29.0286 25.8019 28.3547 28.3221 28.3547C35.9634 28.3547 42.163 34.5463 42.163 42.1778L42.1399 55.5805C42.1399 59.3991 39.043 62.4921 35.2194 62.4921C31.3959 62.4921 28.299 59.3991 28.299 55.5805V42.1778" stroke="#6B57FF" stroke-linecap="round" stroke-linejoin="round"/>
<path d="M35.2424 30.2036C37.2782 29.0286 39.6427 28.3547 42.1629 28.3547C49.8042 28.3547 56.0038 34.5463 56.0038 42.1778L55.9807 55.5805C55.9807 59.3991 52.8838 62.4921 49.0603 62.4921C45.2367 62.4921 42.1398 59.3991 42.1398 55.5805V42.1778" stroke="#6B57FF" stroke-linecap="round" stroke-linejoin="round"/>
<path d="M49.0835 30.2036C51.1193 29.0286 53.4838 28.3547 56.0039 28.3547C63.6453 28.3547 69.8449 34.5463 69.8449 42.1778L69.8218 55.5805C69.8218 59.3991 66.7249 62.4921 62.9013 62.4921C59.0778 62.4921 55.9809 59.3991 55.9809 55.5805V42.1778" stroke="#6B57FF" stroke-linecap="round" stroke-linejoin="round"/>
<path d="M28.3566 187.315C13.0682 187.315 0.674831 174.937 0.674831 159.668L0.645996 42.1778C0.645996 34.5463 6.84557 28.3547 14.4869 28.3547C22.1282 28.3547 28.3278 34.5463 28.3278 42.1778L28.3047 55.5805C28.3047 59.3991 25.2078 62.4921 21.3843 62.4921C17.5607 62.4921 14.4638 59.3991 14.4638 55.5805V42.1778" stroke="#6B57FF" stroke-linecap="round" stroke-linejoin="round"/>
<path d="M69.8793 50.3737C72.5956 47.9719 76.7536 48.0641 79.3546 50.6674C82.0593 53.3687 82.0593 57.7403 79.3546 60.4415L56.0442 83.7219V106.616" stroke="#6B57FF" stroke-linecap="round" stroke-linejoin="round"/>
<path d="M261.83 187.666L261.611 187.447H231.472C227.625 187.447 224.448 184.274 224.448 180.432C224.448 176.59 227.625 173.417 231.472 173.417H247.556L247.481 173.342H231.466C227.62 173.342 224.442 170.168 224.442 166.327C224.442 162.485 227.62 159.311 231.466 159.311H233.427L233.392 159.277H231.507C227.66 159.277 224.482 156.103 224.482 152.262C224.482 151.686 224.563 151.133 224.696 150.597L133.911 59.952C131.148 56.9858 127.285 55.1772 122.533 55.1772H81.3673C81.4712 57.0722 80.8079 58.9959 79.3604 60.4415L56.05 83.722V96.6926H10.0175V99.3766C10.0175 99.5379 9.8906 99.6646 9.72912 99.6646C9.56765 99.6646 9.44077 99.5379 9.44077 99.3766V96.6926H0.66333L0.674864 159.795C0.674864 175.064 13.0682 187.441 28.3567 187.441C30.3982 187.441 32.3878 187.211 34.3083 186.796H28.472L29.0314 106.795H56.0443L131.719 106.824H145.849L145.289 187.672H261.835L261.83 187.666ZM10.0175 168.492C10.0175 168.653 9.8906 168.78 9.72912 168.78C9.56765 168.78 9.44077 168.653 9.44077 168.492V165.612C9.44077 165.451 9.56765 165.324 9.72912 165.324C9.8906 165.324 10.0175 165.451 10.0175 165.612V168.492ZM10.0175 156.973C10.0175 157.134 9.8906 157.261 9.72912 157.261C9.56765 157.261 9.44077 157.134 9.44077 156.973V154.093C9.44077 153.932 9.56765 153.805 9.72912 153.805C9.8906 153.805 10.0175 153.932 10.0175 154.093V156.973ZM10.0175 145.454C10.0175 145.615 9.8906 145.742 9.72912 145.742C9.56765 145.742 9.44077 145.615 9.44077 145.454V142.574C9.44077 142.413 9.56765 142.286 9.72912 142.286C9.8906 142.286 10.0175 142.413 10.0175 142.574V145.454ZM10.0175 133.934C10.0175 134.096 9.8906 134.222 9.72912 134.222C9.56765 134.222 9.44077 134.096 9.44077 133.934V131.055C9.44077 130.893 9.56765 130.767 9.72912 130.767C9.8906 130.767 10.0175 130.893 10.0175 131.055V133.934ZM10.0175 122.415C10.0175 122.576 9.8906 122.703 9.72912 122.703C9.56765 122.703 9.44077 122.576 9.44077 122.415V119.535C9.44077 119.374 9.56765 119.247 9.72912 119.247C9.8906 119.247 10.0175 119.374 10.0175 119.535V122.415ZM10.0175 110.896C10.0175 111.057 9.8906 111.184 9.72912 111.184C9.56765 111.184 9.44077 111.057 9.44077 110.896V108.016C9.44077 107.855 9.56765 107.728 9.72912 107.728C9.8906 107.728 10.0175 107.855 10.0175 108.016V110.896ZM154.897 159.352L182.706 187.125L182.296 187.533L154.488 159.761L154.897 159.352Z" fill="#6B57FF"/>
<path d="M28.4663 187.211L145.284 187.24L145.843 106.824L29.0315 106.795L28.4663 187.211Z" stroke="#6B57FF" stroke-linecap="round" stroke-linejoin="round"/>
<path d="M86.9614 150.096C88.8725 150.096 90.4217 148.549 90.4217 146.64C90.4217 144.732 88.8725 143.185 86.9614 143.185C85.0504 143.185 83.5012 144.732 83.5012 146.64C83.5012 148.549 85.0504 150.096 86.9614 150.096Z" fill="black"/>
<path d="M267.256 173.417H231.466C227.62 173.417 224.442 176.59 224.442 180.432C224.442 184.273 227.62 187.447 231.466 187.447H267.256C271.103 187.447 274.281 184.273 274.281 180.432C274.315 176.556 271.138 173.382 267.256 173.417Z" stroke="#6B57FF" stroke-miterlimit="10"/>
<path d="M267.256 159.311H231.466C227.62 159.311 224.442 162.485 224.442 166.327C224.442 170.168 227.62 173.342 231.466 173.342H267.256C271.103 173.342 274.281 170.168 274.281 166.327C274.281 162.485 271.138 159.346 267.256 159.311Z" stroke="#6B57FF" stroke-miterlimit="10"/>
<path d="M267.297 145.24H231.506C227.66 145.24 224.482 148.414 224.482 152.256C224.482 156.097 227.66 159.271 231.506 159.271H267.297C271.143 159.271 274.321 156.097 274.321 152.256C274.356 148.379 271.213 145.24 267.297 145.24Z" stroke="#6B57FF" stroke-miterlimit="10"/>
<path d="M226.316 148.138C220.826 148.138 216.356 143.674 216.356 138.191C216.356 137.073 215.901 135.501 215.376 133.687C214.955 132.241 214.148 129.453 214.257 128.25H226.316C229.009 128.25 231.443 129.338 233.237 131.083H236.293C234.067 127.973 230.428 125.934 226.31 125.934H212.896L212.55 126.389C211.316 128.008 212.21 131.078 213.15 134.332C213.588 135.841 214.038 137.402 214.038 138.197C214.038 144.958 219.546 150.459 226.316 150.459C230.509 150.459 234.211 148.339 236.426 145.125H233.427C231.616 146.98 229.107 148.143 226.316 148.143V148.138Z" fill="black"/>
<path d="M267.331 131.176H231.541C227.694 131.176 224.517 134.349 224.517 138.191C224.517 142.032 227.694 145.206 231.541 145.206H267.331C271.178 145.206 274.356 142.032 274.356 138.191C274.356 134.349 271.178 131.176 267.331 131.176Z" stroke="#6B57FF" stroke-miterlimit="10"/>
<path d="M187.827 113.551L192.827 159.547L218.064 159.622L223.3 113.637L187.827 113.551Z" fill="black"/>
<path d="M216.582 80.5198C216.582 84.9604 211.968 84.9604 211.968 89.4069C211.968 93.8475 216.582 93.8476 216.582 98.294C216.582 102.735 211.968 102.735 211.968 107.181" stroke="#6B57FF" stroke-miterlimit="10"/>
<path d="M209.378 80.5198C209.378 84.9604 204.765 84.9604 204.765 89.4069C204.765 93.8475 209.378 93.8476 209.378 98.294C209.378 102.735 204.765 102.735 204.765 107.181" stroke="#6B57FF" stroke-miterlimit="10"/>
<path d="M202.175 80.5198C202.175 84.9604 197.562 84.9604 197.562 89.4069C197.562 93.8475 202.175 93.8476 202.175 98.294C202.175 102.735 197.562 102.735 197.562 107.181" stroke="#6B57FF" stroke-miterlimit="10"/>
<path d="M26.6841 185.356H203" stroke="black" stroke-width="8" stroke-miterlimit="10" stroke-linecap="round"/>
</g>
<defs>
<clipPath id="clip0_1670_27261">
<rect width="284.315" height="188" fill="white"/>
</clipPath>
</defs>
</svg>
